<?xml version="1.0" encoding="UTF-8"?>
<!DOCTYPE svg PUBLIC "-//W3C//DTD SVG 1.1//EN" "http://www.w3.org/Graphics/SVG/1.1/DTD/svg11.dtd">
<svg xmlns="http://www.w3.org/2000/svg" version="1.1" width="1135px" height="551px" style="shape-rendering:geometricPrecision; text-rendering:geometricPrecision; image-rendering:optimizeQuality; fill-rule:evenodd; clip-rule:evenodd" xmlns:xlink="http://www.w3.org/1999/xlink">
<g><path style="opacity:1" fill="#fdfdfd" d="M -0.5,-0.5 C 377.833,-0.5 756.167,-0.5 1134.5,-0.5C 1134.5,183.167 1134.5,366.833 1134.5,550.5C 756.167,550.5 377.833,550.5 -0.5,550.5C -0.5,366.833 -0.5,183.167 -0.5,-0.5 Z"/></g>
<g><path style="opacity:1" fill="#010000" d="M 567.5,349.5 C 572.524,408.947 550.524,455.447 501.5,489C 493.392,494.052 485.059,498.552 476.5,502.5C 430.748,521.329 385.748,519.829 341.5,498C 322.66,487.413 303.66,477.079 284.5,467C 267.587,459.348 250.92,459.681 234.5,468C 224.911,476.25 220.245,486.75 220.5,499.5C 219.518,502.962 219.185,506.629 219.5,510.5C 214.5,510.5 209.5,510.5 204.5,510.5C 201.43,485.105 201.93,459.772 206,434.5C 222.649,362.858 267.482,331.692 340.5,341C 347.289,342.874 353.955,345.041 360.5,347.5C 372.323,353.58 383.323,360.913 393.5,369.5C 393.833,370.5 394.5,371.167 395.5,371.5C 398.808,374.471 402.141,377.471 405.5,380.5C 405.5,381.167 405.833,381.5 406.5,381.5C 410.861,386.193 415.195,390.859 419.5,395.5C 419.5,396.167 419.833,396.5 420.5,396.5C 427.124,405.177 434.457,413.844 442.5,422.5C 453.457,436.626 466.457,448.459 481.5,458C 501.106,463.779 515.606,457.613 525,439.5C 525.498,434.481 525.332,429.481 524.5,424.5C 524.068,423.29 523.401,422.29 522.5,421.5C 520.913,417.317 518.579,413.65 515.5,410.5C 514.581,407.911 512.914,405.911 510.5,404.5C 509.139,402.473 507.473,400.806 505.5,399.5C 502.836,396.734 500.003,394.067 497,391.5C 496.617,392.056 496.117,392.389 495.5,392.5C 495.489,390.983 494.823,389.816 493.5,389C 482.272,380.552 470.272,373.385 457.5,367.5C 456.564,366.026 455.23,365.026 453.5,364.5C 446.838,361.502 440.171,358.502 433.5,355.5C 431.574,354.514 429.574,353.514 427.5,352.5C 425.5,351.833 423.5,351.167 421.5,350.5C 421.5,349.833 421.167,349.5 420.5,349.5C 413.152,346.824 405.819,344.157 398.5,341.5C 396.698,340.542 394.698,339.875 392.5,339.5C 388.579,337.971 384.579,336.637 380.5,335.5C 379.07,334.463 377.403,333.796 375.5,333.5C 339.387,324.184 304.721,311.017 271.5,294C 217.051,262.931 194.218,216.097 203,153.5C 214.149,105.349 241.982,70.516 286.5,49C 335.142,27.8849 382.809,29.8849 429.5,55C 444.905,64.7314 460.572,74.0647 476.5,83C 489.981,88.595 503.648,88.9284 517.5,84C 527.815,78.6607 533.982,70.1607 536,58.5C 536.997,51.5327 537.497,44.5327 537.5,37.5C 542.833,37.5 548.167,37.5 553.5,37.5C 558.873,74.5084 555.04,110.508 542,145.5C 523.9,185.655 492.733,207.155 448.5,210C 419.202,211.901 393.536,203.234 371.5,184C 349.088,162.267 328.921,138.767 311,113.5C 303.672,104.83 295.172,97.6633 285.5,92C 265.833,86.4142 250.999,92.5809 241,110.5C 239.544,122.131 242.544,132.465 250,141.5C 269.455,161.32 291.955,176.82 317.5,188C 328.086,192.529 338.753,196.862 349.5,201C 381.437,210.535 413.104,220.868 444.5,232C 474.871,244.009 502.538,260.342 527.5,281C 548.434,299.364 561.767,322.197 567.5,349.5 Z"/></g>
<g><path style="opacity:1" fill="#949494" d="M 328.5,330.5 C 325.455,329.455 323.455,327.455 322.5,324.5C 324.527,324.338 326.527,324.505 328.5,325C 327.672,325.915 326.672,326.581 325.5,327C 326.71,328.039 327.71,329.206 328.5,330.5 Z"/></g>
<g><path style="opacity:1" fill="#7b7b7b" d="M 337.5,331.5 C 334.287,331.81 331.287,331.477 328.5,330.5C 333.22,330.775 333.554,329.941 329.5,328C 331.075,328.379 332.575,328.212 334,327.5C 334.69,329.35 335.856,330.684 337.5,331.5 Z"/></g>
<g><path style="opacity:1" fill="#afafaf" d="M 880.5,324.5 C 880.5,328.167 880.5,331.833 880.5,335.5C 876.958,335.187 873.625,335.521 870.5,336.5C 869.957,336.44 869.624,336.107 869.5,335.5C 872.768,334.513 876.102,334.18 879.5,334.5C 879.187,330.958 879.521,327.625 880.5,324.5 Z"/></g>
<g><path style="opacity:1" fill="#7e7e7e" d="M 375.5,333.5 C 377.403,333.796 379.07,334.463 380.5,335.5C 379.761,335.369 379.094,335.536 378.5,336C 379.914,337.993 380.914,340.16 381.5,342.5C 378.607,338.569 374.607,336.402 369.5,336C 363.976,335.713 358.476,335.213 353,334.5C 350.995,334.999 349.495,336.166 348.5,338C 343.467,338.829 338.467,338.662 333.5,337.5C 335.359,335.808 337.359,334.308 339.5,333C 338.584,332.722 337.918,332.222 337.5,331.5C 340.786,332.207 344.119,332.54 347.5,332.5C 347.351,331.448 347.517,330.448 348,329.5C 349.03,332.257 350.697,333.591 353,333.5C 353.818,328.206 354.318,328.206 354.5,333.5C 362.26,334.075 369.927,334.909 377.5,336C 376.619,335.292 375.953,334.458 375.5,333.5 Z"/></g>
<g><path style="opacity:1" fill="#b4b4b4" d="M 882.5,327.5 C 882.5,329.833 882.5,332.167 882.5,334.5C 886.555,334.176 890.555,334.509 894.5,335.5C 894.376,336.107 894.043,336.44 893.5,336.5C 889.702,335.517 885.702,335.183 881.5,335.5C 881.194,332.615 881.527,329.948 882.5,327.5 Z"/></g>
<g><path style="opacity:1" fill="#ececec" d="M 340.5,334.5 C 343.546,335.394 346.546,335.561 349.5,335C 345.845,337.977 341.845,338.311 337.5,336C 338.737,335.768 339.737,335.268 340.5,334.5 Z"/></g>
<g><path style="opacity:1" fill="#525252" d="M 882.5,327.5 C 881.527,329.948 881.194,332.615 881.5,335.5C 885.702,335.183 889.702,335.517 893.5,336.5C 889.5,336.5 885.5,336.5 881.5,336.5C 881.167,353.833 880.833,353.833 880.5,336.5C 877.167,336.5 873.833,336.5 870.5,336.5C 873.625,335.521 876.958,335.187 880.5,335.5C 880.5,331.833 880.5,328.167 880.5,324.5C 880.369,323.624 880.702,322.957 881.5,322.5C 882.452,324.045 882.785,325.712 882.5,327.5 Z"/></g>
<g><path style="opacity:1" fill="#e9e6e2" d="M 380.5,335.5 C 384.579,336.637 388.579,337.971 392.5,339.5C 391.972,340.847 391.805,342.181 392,343.5C 393.011,342.663 394.178,342.33 395.5,342.5C 396.283,346.146 396.45,349.812 396,353.5C 394.221,356.276 393.221,355.943 393,352.5C 392.23,353.598 391.397,353.598 390.5,352.5C 390.994,349.078 390.661,347.411 389.5,347.5C 388.778,348.551 387.778,349.218 386.5,349.5C 385.557,346.6 383.89,344.267 381.5,342.5C 380.914,340.16 379.914,337.993 378.5,336C 379.094,335.536 379.761,335.369 380.5,335.5 Z"/></g>
<g><path style="opacity:1" fill="#7d7772" d="M 381.5,342.5 C 383.89,344.267 385.557,346.6 386.5,349.5C 387.501,350.789 387.334,352.122 386,353.5C 384.293,354.459 382.459,355.125 380.5,355.5C 376.386,353.943 372.386,352.11 368.5,350C 367.748,349.329 367.414,348.496 367.5,347.5C 371.463,346.56 375.463,346.393 379.5,347C 367.669,347.152 367.002,349.152 377.5,353C 379.579,353.808 381.579,353.641 383.5,352.5C 381.726,351.813 380.059,350.98 378.5,350C 380.443,350.305 382.443,350.305 384.5,350C 381.833,349.333 381.833,348.667 384.5,348C 383.242,346.259 382.242,344.426 381.5,342.5 Z"/></g>
<g><path style="opacity:1" fill="#e4dbd1" d="M 567.5,349.5 C 654.5,349.5 741.5,349.5 828.5,349.5C 823.921,352.41 818.921,354.577 813.5,356C 819.85,357.295 826.017,359.128 832,361.5C 832.748,363.332 833.748,364.999 835,366.5C 835.265,372.588 836.098,378.588 837.5,384.5C 837.958,377.921 839.458,371.588 842,365.5C 845.358,362.969 848.524,360.302 851.5,357.5C 860.718,355.167 860.384,353.667 850.5,353C 848.654,351.97 846.987,350.804 845.5,349.5C 850.167,349.5 854.833,349.5 859.5,349.5C 861.881,362.091 864.881,374.425 868.5,386.5C 865.254,390.585 860.921,392.752 855.5,393C 865.572,395.778 872.072,402.944 875,414.5C 875.177,418.356 875.677,422.023 876.5,425.5C 883.135,451.337 889.135,477.337 894.5,503.5C 878.991,503.83 863.658,503.496 848.5,502.5C 849.167,502.5 849.5,502.167 849.5,501.5C 849.5,498.833 849.5,496.167 849.5,493.5C 840.5,493.5 831.5,493.5 822.5,493.5C 821.523,496.287 821.19,499.287 821.5,502.5C 818.5,502.5 815.5,502.5 812.5,502.5C 812.5,499.5 812.5,496.5 812.5,493.5C 803.5,493.5 794.5,493.5 785.5,493.5C 785.5,496.5 785.5,499.5 785.5,502.5C 782.5,502.5 779.5,502.5 776.5,502.5C 776.5,499.167 776.5,495.833 776.5,492.5C 767.167,492.5 757.833,492.5 748.5,492.5C 748.5,495.833 748.5,499.167 748.5,502.5C 745.5,502.5 742.5,502.5 739.5,502.5C 739.5,502.167 739.5,501.833 739.5,501.5C 739.5,498.833 739.5,496.167 739.5,493.5C 730.5,493.5 721.5,493.5 712.5,493.5C 711.523,496.287 711.19,499.287 711.5,502.5C 708.5,502.5 705.5,502.5 702.5,502.5C 702.5,499.5 702.5,496.5 702.5,493.5C 693.5,493.5 684.5,493.5 675.5,493.5C 675.5,496.5 675.5,499.5 675.5,502.5C 672.5,502.5 669.5,502.5 666.5,502.5C 666.5,499.167 666.5,495.833 666.5,492.5C 658.833,492.5 651.167,492.5 643.5,492.5C 644.018,491.423 644.352,490.256 644.5,489C 640.856,478.151 639.689,466.985 641,455.5C 642.115,452.279 644.115,451.612 647,453.5C 655.194,452.726 662.028,449.393 667.5,443.5C 673.957,435.584 679.123,426.918 683,417.5C 685.532,405.351 680.699,399.517 668.5,400C 658.45,404.051 650.95,410.885 646,420.5C 644.506,421.747 643.006,421.747 641.5,420.5C 642.987,411.397 644.987,402.397 647.5,393.5C 647.5,388.833 645.167,386.5 640.5,386.5C 639.006,386.709 637.839,387.376 637,388.5C 636.324,395.936 635.491,403.269 634.5,410.5C 627.917,411.137 621.583,412.804 615.5,415.5C 614.833,415.167 614.167,414.833 613.5,414.5C 611.037,404.87 605.037,398.703 595.5,396C 589.833,395.333 584.167,395.333 578.5,396C 576,397.167 574.167,399 573,401.5C 572.333,405.5 572.333,409.5 573,413.5C 574.441,416.155 575.274,418.988 575.5,422C 572.582,431.411 572.082,440.911 574,450.5C 576.92,458.442 582.42,462.942 590.5,464C 598.92,459.581 605.42,453.081 610,444.5C 612.092,436.852 614.092,429.186 616,421.5C 621.339,417.736 627.172,415.57 633.5,415C 634.087,419.644 634.42,424.31 634.5,429C 632.975,432.642 631.975,436.475 631.5,440.5C 631.515,450.098 631.681,459.764 632,469.5C 632.306,471.906 633.139,474.073 634.5,476C 633.426,480.84 633.592,485.673 635,490.5C 638.173,493.423 639.34,497.089 638.5,501.5C 638.5,501.833 638.5,502.167 638.5,502.5C 635.5,502.5 632.5,502.5 629.5,502.5C 629.5,502.167 629.5,501.833 629.5,501.5C 629.5,498.833 629.5,496.167 629.5,493.5C 620.5,493.5 611.5,493.5 602.5,493.5C 601.523,496.287 601.19,499.287 601.5,502.5C 598.5,502.5 595.5,502.5 592.5,502.5C 592.5,499.5 592.5,496.5 592.5,493.5C 583.5,493.5 574.5,493.5 565.5,493.5C 565.5,496.5 565.5,499.5 565.5,502.5C 562.5,502.5 559.5,502.5 556.5,502.5C 556.5,499.167 556.5,495.833 556.5,492.5C 546.985,492.173 537.652,492.506 528.5,493.5C 528.5,496.167 528.5,498.833 528.5,501.5C 528.5,501.833 528.5,502.167 528.5,502.5C 511.167,502.5 493.833,502.5 476.5,502.5C 485.059,498.552 493.392,494.052 501.5,489C 550.524,455.447 572.524,408.947 567.5,349.5 Z"/></g>
<g><path style="opacity:1" fill="#d9d0ca" d="M 421.5,350.5 C 423.5,351.167 425.5,351.833 427.5,352.5C 426.306,353.272 425.306,354.272 424.5,355.5C 423.504,355.414 422.671,355.748 422,356.5C 421.505,354.527 421.338,352.527 421.5,350.5 Z"/></g>
<g><path style="opacity:1" fill="#5a544d" d="M 390.5,352.5 C 391.075,354.411 392.075,356.078 393.5,357.5C 392.833,357.5 392.5,357.833 392.5,358.5C 388.363,355.84 387.363,352.173 389.5,347.5C 390.661,347.411 390.994,349.078 390.5,352.5 Z"/></g>
<g><path style="opacity:1" fill="#97928d" d="M 392.5,339.5 C 394.698,339.875 396.698,340.542 398.5,341.5C 397.503,341.47 396.836,341.97 396.5,343C 399.671,348.803 398.671,353.637 393.5,357.5C 392.075,356.078 391.075,354.411 390.5,352.5C 391.397,353.598 392.23,353.598 393,352.5C 393.221,355.943 394.221,356.276 396,353.5C 396.45,349.812 396.283,346.146 395.5,342.5C 394.178,342.33 393.011,342.663 392,343.5C 391.805,342.181 391.972,340.847 392.5,339.5 Z"/></g>
<g><path style="opacity:1" fill="#837b74" d="M 427.5,352.5 C 429.574,353.514 431.574,354.514 433.5,355.5C 430.95,355.561 429.45,356.894 429,359.5C 427.871,361.141 426.371,362.141 424.5,362.5C 426.53,360.463 428.196,358.13 429.5,355.5C 427.905,354.566 426.239,354.566 424.5,355.5C 425.306,354.272 426.306,353.272 427.5,352.5 Z"/></g>
<g><path style="opacity:1" fill="#d4cdc6" d="M 424.5,362.5 C 423.448,362.649 422.448,362.483 421.5,362C 423.923,361.268 425.09,359.768 425,357.5C 424,358.5 423,359.5 422,360.5C 421.833,360.167 421.667,359.833 421.5,359.5C 422.524,358.148 423.524,356.815 424.5,355.5C 426.239,354.566 427.905,354.566 429.5,355.5C 428.196,358.13 426.53,360.463 424.5,362.5 Z"/></g>
<g><path style="opacity:1" fill="#e1d8d0" d="M 398.5,341.5 C 405.819,344.157 413.152,346.824 420.5,349.5C 420.66,351.199 420.494,352.866 420,354.5C 419.444,352.405 418.944,352.238 418.5,354C 418.778,364.096 420.445,373.93 423.5,383.5C 422.286,385.754 420.619,386.087 418.5,384.5C 416.734,381.792 414.401,379.792 411.5,378.5C 410.71,377.206 409.71,376.039 408.5,375C 410.426,374.578 411.426,373.411 411.5,371.5C 413.229,370.047 414.229,368.047 414.5,365.5C 413.477,361.121 411.644,357.121 409,353.5C 407.748,355.001 406.748,356.668 406,358.5C 405.188,362.689 405.355,366.689 406.5,370.5C 406.631,371.239 406.464,371.906 406,372.5C 401.269,367.938 396.769,363.271 392.5,358.5C 392.5,357.833 392.833,357.5 393.5,357.5C 398.671,353.637 399.671,348.803 396.5,343C 396.836,341.97 397.503,341.47 398.5,341.5 Z"/></g>
<g><path style="opacity:1" fill="#817870" d="M 411.5,371.5 C 413.358,366.027 412.525,361.027 409,356.5C 408.085,357.328 407.419,358.328 407,359.5C 406.501,363.152 406.335,366.818 406.5,370.5C 405.355,366.689 405.188,362.689 406,358.5C 406.748,356.668 407.748,355.001 409,353.5C 411.644,357.121 413.477,361.121 414.5,365.5C 414.229,368.047 413.229,370.047 411.5,371.5 Z"/></g>
<g><path style="opacity:1" fill="#e1d8cf" d="M 433.5,355.5 C 440.171,358.502 446.838,361.502 453.5,364.5C 453.5,366.833 453.5,369.167 453.5,371.5C 452.778,371.918 452.278,372.584 452,373.5C 450.442,370.979 448.275,369.312 445.5,368.5C 443.545,366.674 441.212,366.174 438.5,367C 439.066,367.995 439.733,368.828 440.5,369.5C 440.461,372.089 441.461,374.089 443.5,375.5C 445.165,377.797 447.498,379.13 450.5,379.5C 452.147,381.488 451.814,382.821 449.5,383.5C 438.948,380.736 437.615,382.569 445.5,389C 448.351,390.289 451.351,390.789 454.5,390.5C 455.39,393.948 457.057,396.948 459.5,399.5C 460.854,403.032 462.854,406.198 465.5,409C 457.823,407.172 450.49,404.172 443.5,400C 443.455,397.364 443.288,394.53 443,391.5C 442.333,390.833 441.667,390.167 441,389.5C 441.344,391.258 441.844,393.091 442.5,395C 442.519,396.792 442.186,397.292 441.5,396.5C 440.812,394.193 439.646,392.86 438,392.5C 437.788,389.668 437.621,387.002 437.5,384.5C 434.891,388.025 434.891,391.525 437.5,395C 436.552,395.483 435.552,395.649 434.5,395.5C 432.492,393.732 430.326,392.066 428,390.5C 426.638,386.942 425.138,383.442 423.5,380C 426.665,378.369 429.498,376.202 432,373.5C 432.483,372.552 432.649,371.552 432.5,370.5C 430.143,370.337 427.81,370.503 425.5,371C 424.944,371.383 424.611,371.883 424.5,372.5C 423.5,372.5 422.5,372.5 421.5,372.5C 420.976,368.572 421.976,365.239 424.5,362.5C 426.371,362.141 427.871,361.141 429,359.5C 429.45,356.894 430.95,355.561 433.5,355.5 Z"/></g>
<g><path style="opacity:1" fill="#080606" d="M 713.5,357.5 C 717.788,357.279 720.454,359.113 721.5,363C 720.052,369.732 717.885,376.232 715,382.5C 714,387.833 713,393.167 712,398.5C 709.501,406.992 707.001,415.492 704.5,424C 704.833,425.167 705.167,426.333 705.5,427.5C 705.833,427.333 706.167,427.167 706.5,427C 710.579,421.588 715.246,416.921 720.5,413C 726.177,409.201 731.343,409.701 736,414.5C 736.548,427.366 736.048,440.2 734.5,453C 734.208,456.214 735.041,459.048 737,461.5C 740.058,459.043 742.392,456.043 744,452.5C 746.192,445.783 749.192,439.449 753,433.5C 752.987,429.876 754.32,426.876 757,424.5C 757.873,416.248 759.707,408.248 762.5,400.5C 770.709,398.519 775.209,401.852 776,410.5C 776.544,419.548 776.044,428.548 774.5,437.5C 774.272,442.257 775.438,446.591 778,450.5C 781.718,447.384 784.718,443.718 787,439.5C 792.052,426.229 798.552,413.729 806.5,402C 814.353,397.92 821.353,399.086 827.5,405.5C 831.132,401.367 835.465,398.2 840.5,396C 847.62,394.392 850.954,397.226 850.5,404.5C 847.345,421.746 845.011,439.079 843.5,456.5C 843.199,463.018 844.032,469.351 846,475.5C 846.667,474.833 847.333,474.167 848,473.5C 851.219,460.512 855.219,447.845 860,435.5C 861.875,431.594 864.375,428.094 867.5,425C 869.134,424.506 870.801,424.34 872.5,424.5C 870.304,429.232 867.804,433.898 865,438.5C 860.772,453.506 856.772,468.506 853,483.5C 849.627,486.886 845.794,487.386 841.5,485C 839.487,482.621 837.654,480.121 836,477.5C 833.458,453.835 834.625,430.502 839.5,407.5C 838.127,407.343 836.793,407.51 835.5,408C 832.063,412.441 828.23,416.607 824,420.5C 818.178,430.139 812.845,440.139 808,450.5C 802.506,457.111 796.84,457.111 791,450.5C 790.798,448.744 790.298,447.078 789.5,445.5C 778.492,465.801 767.992,465.468 758,444.5C 757.118,441.211 756.452,437.877 756,434.5C 750.214,445.401 745.547,456.735 742,468.5C 738.571,470.013 735.571,469.347 733,466.5C 728.844,458.398 727.344,449.898 728.5,441C 728.254,433.662 727.421,426.496 726,419.5C 720.379,422.787 715.712,427.121 712,432.5C 707.899,439.462 704.566,446.796 702,454.5C 694.46,455.523 691.46,452.189 693,444.5C 699.374,415.251 706.207,386.251 713.5,357.5 Z"/></g>
<g><path style="opacity:1" fill="#d5cdc5" d="M 360.5,347.5 C 362.833,347.5 365.167,347.5 367.5,347.5C 367.414,348.496 367.748,349.329 368.5,350C 372.386,352.11 376.386,353.943 380.5,355.5C 382.459,355.125 384.293,354.459 386,353.5C 387.334,352.122 387.501,350.789 386.5,349.5C 387.778,349.218 388.778,348.551 389.5,347.5C 387.363,352.173 388.363,355.84 392.5,358.5C 392.859,360.371 393.859,361.871 395.5,363C 394.5,363.333 393.5,363.667 392.5,364C 394.246,364.471 395.913,365.138 397.5,366C 393.148,366.419 392.815,367.086 396.5,368C 395.473,368.513 394.473,369.013 393.5,369.5C 383.323,360.913 372.323,353.58 360.5,347.5 Z"/></g>
<g><path style="opacity:1" fill="#7c746d" d="M 420.5,349.5 C 421.167,349.5 421.5,349.833 421.5,350.5C 421.338,352.527 421.505,354.527 422,356.5C 422.671,355.748 423.504,355.414 424.5,355.5C 423.524,356.815 422.524,358.148 421.5,359.5C 421.667,359.833 421.833,360.167 422,360.5C 423,359.5 424,358.5 425,357.5C 425.09,359.768 423.923,361.268 421.5,362C 422.448,362.483 423.448,362.649 424.5,362.5C 421.976,365.239 420.976,368.572 421.5,372.5C 422.5,372.5 423.5,372.5 424.5,372.5C 424.611,371.883 424.944,371.383 425.5,371C 427.81,370.503 430.143,370.337 432.5,370.5C 432.649,371.552 432.483,372.552 432,373.5C 429.498,376.202 426.665,378.369 423.5,380C 425.138,383.442 426.638,386.942 428,390.5C 430.326,392.066 432.492,393.732 434.5,395.5C 431.86,395.447 429.36,394.78 427,393.5C 424.489,393.84 422.322,394.84 420.5,396.5C 419.833,396.5 419.5,396.167 419.5,395.5C 421.768,393.535 424.435,392.368 427.5,392C 424.31,389.636 421.31,387.136 418.5,384.5C 420.619,386.087 422.286,385.754 423.5,383.5C 420.445,373.93 418.778,364.096 418.5,354C 418.944,352.238 419.444,352.405 420,354.5C 420.494,352.866 420.66,351.199 420.5,349.5 Z"/></g>
<g><path style="opacity:1" fill="#dbd2cb" d="M 411.5,371.5 C 410.883,371.611 410.383,371.944 410,372.5C 409.667,369.5 409.333,366.5 409,363.5C 409.03,366.361 408.197,368.695 406.5,370.5C 406.335,366.818 406.501,363.152 407,359.5C 407.419,358.328 408.085,357.328 409,356.5C 412.525,361.027 413.358,366.027 411.5,371.5 Z"/></g>
<g><path style="opacity:1" fill="#706860" d="M 445.5,368.5 C 444.07,368.579 442.736,368.246 441.5,367.5C 440.702,367.957 440.369,368.624 440.5,369.5C 439.733,368.828 439.066,367.995 438.5,367C 441.212,366.174 443.545,366.674 445.5,368.5 Z"/></g>
<g><path style="opacity:1" fill="#736c66" d="M 453.5,364.5 C 455.23,365.026 456.564,366.026 457.5,367.5C 455.833,368.5 454.5,369.833 453.5,371.5C 453.5,369.167 453.5,366.833 453.5,364.5 Z"/></g>
<g><path style="opacity:1" fill="#6a625c" d="M 392.5,358.5 C 396.769,363.271 401.269,367.938 406,372.5C 406.464,371.906 406.631,371.239 406.5,370.5C 408.197,368.695 409.03,366.361 409,363.5C 409.333,366.5 409.667,369.5 410,372.5C 410.383,371.944 410.883,371.611 411.5,371.5C 411.426,373.411 410.426,374.578 408.5,375C 409.71,376.039 410.71,377.206 411.5,378.5C 407.43,375.94 403.764,372.773 400.5,369C 397.981,368.259 396.315,369.092 395.5,371.5C 394.5,371.167 393.833,370.5 393.5,369.5C 394.473,369.013 395.473,368.513 396.5,368C 392.815,367.086 393.148,366.419 397.5,366C 395.913,365.138 394.246,364.471 392.5,364C 393.5,363.667 394.5,363.333 395.5,363C 393.859,361.871 392.859,360.371 392.5,358.5 Z"/></g>
<g><path style="opacity:1" fill="#665d57" d="M 440.5,369.5 C 442.008,371.181 443.008,373.181 443.5,375.5C 441.461,374.089 440.461,372.089 440.5,369.5 Z"/></g>
<g><path style="opacity:1" fill="#dfd7cf" d="M 411.5,378.5 C 410.082,380.308 408.082,380.975 405.5,380.5C 402.141,377.471 398.808,374.471 395.5,371.5C 396.315,369.092 397.981,368.259 400.5,369C 403.764,372.773 407.43,375.94 411.5,378.5 Z"/></g>
<g><path style="opacity:1" fill="#645e59" d="M 845.5,349.5 C 846.987,350.804 848.654,351.97 850.5,353C 860.384,353.667 860.718,355.167 851.5,357.5C 848.524,360.302 845.358,362.969 842,365.5C 839.458,371.588 837.958,377.921 837.5,384.5C 836.098,378.588 835.265,372.588 835,366.5C 833.748,364.999 832.748,363.332 832,361.5C 826.017,359.128 819.85,357.295 813.5,356C 818.921,354.577 823.921,352.41 828.5,349.5C 831.821,347.903 833.988,345.236 835,341.5C 836.022,335.881 836.855,330.214 837.5,324.5C 838.274,330.904 839.441,337.237 841,343.5C 841.814,346.177 843.314,348.177 845.5,349.5 Z"/></g>
<g><path style="opacity:1" fill="#e2dad2" d="M 851.5,357.5 C 844.884,359.615 840.384,363.949 838,370.5C 835.561,360.504 829.061,355.67 818.5,356C 827.79,353.704 834.29,348.204 838,339.5C 839.481,348.841 844.981,354.008 854.5,355C 853.429,355.852 852.429,356.685 851.5,357.5 Z"/></g>
<g><path style="opacity:1" fill="#d9d1ca" d="M 424.5,372.5 C 431.895,371.12 432.395,372.454 426,376.5C 425.651,375.527 424.818,374.694 423.5,374C 424.056,373.617 424.389,373.117 424.5,372.5 Z"/></g>
<g><path style="opacity:1" fill="#d3cbc4" d="M 445.5,368.5 C 445.279,369.735 444.612,370.735 443.5,371.5C 444.76,372.382 445.926,373.382 447,374.5C 446.851,370.564 448.017,370.564 450.5,374.5C 448.433,376.745 446.1,377.079 443.5,375.5C 443.008,373.181 442.008,371.181 440.5,369.5C 440.369,368.624 440.702,367.957 441.5,367.5C 442.736,368.246 444.07,368.579 445.5,368.5 Z"/></g>
<g><path style="opacity:1" fill="#0d0b0a" d="M 767.5,376.5 C 769.861,376.674 772.194,377.007 774.5,377.5C 774.663,379.857 774.497,382.19 774,384.5C 771.667,387.167 769.333,387.167 767,384.5C 766.278,381.739 766.445,379.073 767.5,376.5 Z"/></g>
<g><path style="opacity:1" fill="#645b55" d="M 411.5,378.5 C 414.401,379.792 416.734,381.792 418.5,384.5C 416.804,384.315 415.471,383.481 414.5,382C 411.854,381.503 409.187,381.336 406.5,381.5C 405.833,381.5 405.5,381.167 405.5,380.5C 408.082,380.975 410.082,380.308 411.5,378.5 Z"/></g>
<g><path style="opacity:1" fill="#79716a" d="M 445.5,368.5 C 448.275,369.312 450.442,370.979 452,373.5C 452.278,372.584 452.778,371.918 453.5,371.5C 453.347,377.869 453.68,384.203 454.5,390.5C 451.351,390.789 448.351,390.289 445.5,389C 437.615,382.569 438.948,380.736 449.5,383.5C 451.814,382.821 452.147,381.488 450.5,379.5C 447.498,379.13 445.165,377.797 443.5,375.5C 446.1,377.079 448.433,376.745 450.5,374.5C 448.017,370.564 446.851,370.564 447,374.5C 445.926,373.382 444.76,372.382 443.5,371.5C 444.612,370.735 445.279,369.735 445.5,368.5 Z"/></g>
<g><path style="opacity:1" fill="#d8cfc8" d="M 449.5,383.5 C 453.641,386.097 453.308,386.931 448.5,386C 450.001,387.252 451.668,388.252 453.5,389C 448.783,389.811 445.116,388.144 442.5,384C 444.81,383.503 447.143,383.337 449.5,383.5 Z"/></g>
<g><path style="opacity:1" fill="#080706" d="M 643.5,492.5 C 650.077,493.499 657.41,493.833 665.5,493.5C 665.5,496.167 665.5,498.833 665.5,501.5C 656.5,501.5 647.5,501.5 638.5,501.5C 639.34,497.089 638.173,493.423 635,490.5C 633.592,485.673 633.426,480.84 634.5,476C 633.139,474.073 632.306,471.906 632,469.5C 631.681,459.764 631.515,450.098 631.5,440.5C 631.975,436.475 632.975,432.642 634.5,429C 634.42,424.31 634.087,419.644 633.5,415C 627.172,415.57 621.339,417.736 616,421.5C 614.092,429.186 612.092,436.852 610,444.5C 605.42,453.081 598.92,459.581 590.5,464C 582.42,462.942 576.92,458.442 574,450.5C 572.082,440.911 572.582,431.411 575.5,422C 575.274,418.988 574.441,416.155 573,413.5C 572.333,409.5 572.333,405.5 573,401.5C 574.167,399 576,397.167 578.5,396C 584.167,395.333 589.833,395.333 595.5,396C 605.037,398.703 611.037,404.87 613.5,414.5C 614.167,414.833 614.833,415.167 615.5,415.5C 621.583,412.804 627.917,411.137 634.5,410.5C 635.491,403.269 636.324,395.936 637,388.5C 637.839,387.376 639.006,386.709 640.5,386.5C 645.167,386.5 647.5,388.833 647.5,393.5C 644.987,402.397 642.987,411.397 641.5,420.5C 643.006,421.747 644.506,421.747 646,420.5C 650.95,410.885 658.45,404.051 668.5,400C 680.699,399.517 685.532,405.351 683,417.5C 679.123,426.918 673.957,435.584 667.5,443.5C 662.028,449.393 655.194,452.726 647,453.5C 644.115,451.612 642.115,452.279 641,455.5C 639.689,466.985 640.856,478.151 644.5,489C 644.352,490.256 644.018,491.423 643.5,492.5 Z"/></g>
<g><path style="opacity:1" fill="#ded5cd" d="M 406.5,381.5 C 409.187,381.336 411.854,381.503 414.5,382C 415.471,383.481 416.804,384.315 418.5,384.5C 421.31,387.136 424.31,389.636 427.5,392C 424.435,392.368 421.768,393.535 419.5,395.5C 415.195,390.859 410.861,386.193 406.5,381.5 Z"/></g>
<g><path style="opacity:1" fill="#8f8781" d="M 441.5,396.5 C 440.167,396.833 438.833,397.167 437.5,397.5C 435.973,397.573 434.973,396.906 434.5,395.5C 435.552,395.649 436.552,395.483 437.5,395C 434.891,391.525 434.891,388.025 437.5,384.5C 437.621,387.002 437.788,389.668 438,392.5C 439.646,392.86 440.812,394.193 441.5,396.5 Z"/></g>
<g><path style="opacity:1" fill="#807872" d="M 495.5,392.5 C 496.117,392.389 496.617,392.056 497,391.5C 500.003,394.067 502.836,396.734 505.5,399.5C 502.041,398.426 498.541,397.426 495,396.5C 490.235,399.257 486.068,398.423 482.5,394C 482.833,393.833 483.167,393.667 483.5,393.5C 485.26,396.021 487.593,396.854 490.5,396C 489.328,395.581 488.328,394.915 487.5,394C 489.126,394.195 490.793,394.195 492.5,394C 488.754,389.95 484.587,389.117 480,391.5C 479.517,390.552 479.351,389.552 479.5,388.5C 486.338,387.589 491.671,389.922 495.5,395.5C 496.562,394.575 496.562,393.575 495.5,392.5 Z"/></g>
<g><path style="opacity:1" fill="#736a64" d="M 454.5,390.5 C 455.397,391.598 456.23,391.598 457,390.5C 457.318,392.061 458.151,393.228 459.5,394C 458.112,394.889 458.278,395.389 460,395.5C 461.473,395.097 462.806,394.43 464,393.5C 464.688,394.332 464.521,394.998 463.5,395.5C 461.885,396.154 460.218,396.654 458.5,397C 459.252,397.671 459.586,398.504 459.5,399.5C 457.057,396.948 455.39,393.948 454.5,390.5 Z"/></g>
<g><path style="opacity:1" fill="#e2d8cf" d="M 457.5,367.5 C 470.272,373.385 482.272,380.552 493.5,389C 494.823,389.816 495.489,390.983 495.5,392.5C 496.562,393.575 496.562,394.575 495.5,395.5C 491.671,389.922 486.338,387.589 479.5,388.5C 479.351,389.552 479.517,390.552 480,391.5C 484.587,389.117 488.754,389.95 492.5,394C 490.793,394.195 489.126,394.195 487.5,394C 488.328,394.915 489.328,395.581 490.5,396C 487.593,396.854 485.26,396.021 483.5,393.5C 483.167,393.667 482.833,393.833 482.5,394C 486.068,398.423 490.235,399.257 495,396.5C 498.541,397.426 502.041,398.426 505.5,399.5C 507.473,400.806 509.139,402.473 510.5,404.5C 508.5,405.167 506.5,405.833 504.5,406.5C 502.91,406.628 501.577,407.295 500.5,408.5C 503.547,411.696 507.214,413.196 511.5,413C 512.736,411.915 514.069,411.082 515.5,410.5C 518.579,413.65 520.913,417.317 522.5,421.5C 521.551,422.152 520.385,422.486 519,422.5C 510.82,421.536 502.654,420.536 494.5,419.5C 492.786,418.262 490.786,417.595 488.5,417.5C 488.84,413.869 488.006,410.536 486,407.5C 485.282,406.549 484.449,406.383 483.5,407C 486.449,409.69 487.449,412.857 486.5,416.5C 485.316,414.954 484.316,413.287 483.5,411.5C 483.446,412.687 483.113,414.02 482.5,415.5C 479.776,411.934 478.609,407.934 479,403.5C 479.718,404.451 480.551,404.617 481.5,404C 480.437,402.812 479.103,402.312 477.5,402.5C 477.239,406.342 477.906,410.009 479.5,413.5C 479,413.833 478.5,414.167 478,414.5C 475.567,413.521 473.067,412.855 470.5,412.5C 467.238,407.898 463.572,403.565 459.5,399.5C 459.586,398.504 459.252,397.671 458.5,397C 460.218,396.654 461.885,396.154 463.5,395.5C 464.521,394.998 464.688,394.332 464,393.5C 462.806,394.43 461.473,395.097 460,395.5C 458.278,395.389 458.112,394.889 459.5,394C 458.151,393.228 457.318,392.061 457,390.5C 456.23,391.598 455.397,391.598 454.5,390.5C 453.68,384.203 453.347,377.869 453.5,371.5C 454.5,369.833 455.833,368.5 457.5,367.5 Z"/></g>
<g><path style="opacity:1" fill="#847b73" d="M 464.5,380.5 C 465.5,380.5 466.5,380.5 467.5,380.5C 467.436,384.22 466.936,387.886 466,391.5C 465.631,388.123 465.631,384.79 466,381.5C 463.667,383.833 461.333,386.167 459,388.5C 458.833,388.167 458.667,387.833 458.5,387.5C 460.523,385.147 462.523,382.814 464.5,380.5 Z"/></g>
<g><path style="opacity:1" fill="#6c6a68" d="M 876.5,425.5 C 875.677,422.023 875.177,418.356 875,414.5C 872.072,402.944 865.572,395.778 855.5,393C 860.921,392.752 865.254,390.585 868.5,386.5C 873.267,379.201 875.6,371.201 875.5,362.5C 876.5,362.5 877.5,362.5 878.5,362.5C 878.801,369.642 879.968,376.642 882,383.5C 884.691,389.103 889.191,392.103 895.5,392.5C 889.647,394.148 885.147,397.481 882,402.5C 879.708,410.315 877.874,417.981 876.5,425.5 Z"/></g>
<g><path style="opacity:1" fill="#f4f3f2" d="M 876.5,372.5 C 877.429,375.675 878.262,379.009 879,382.5C 880.912,384.657 882.579,386.991 884,389.5C 886.28,391.037 888.78,392.203 891.5,393C 889.167,394 886.833,395 884.5,396C 882.789,398.589 880.955,401.089 879,403.5C 878.548,406.877 877.882,410.211 877,413.5C 874.952,405.906 870.786,399.739 864.5,395C 858.011,394.553 858.011,393.553 864.5,392C 871.563,387.426 875.563,380.926 876.5,372.5 Z"/></g>
<g><path style="opacity:1" fill="#dfd6cd" d="M 585.5,399.5 C 589.966,399.156 593.966,400.323 597.5,403C 601.115,406.619 603.949,410.786 606,415.5C 606.711,417.367 606.211,418.867 604.5,420C 601.077,421.904 597.41,422.737 593.5,422.5C 593.477,420.4 594.144,418.567 595.5,417C 593.257,413.414 589.923,411.58 585.5,411.5C 583.945,411.722 582.611,412.389 581.5,413.5C 578.518,407.762 579.851,403.096 585.5,399.5 Z"/></g>
<g><path style="opacity:1" fill="#d7cec6" d="M 434.5,395.5 C 434.973,396.906 435.973,397.573 437.5,397.5C 444.33,402.084 451.664,405.917 459.5,409C 460.815,410.395 460.481,411.395 458.5,412C 462.493,411.177 466.493,411.344 470.5,412.5C 470.423,413.75 469.756,414.583 468.5,415C 469.167,415.333 469.833,415.667 470.5,416C 469.549,416.718 469.383,417.551 470,418.5C 470.965,416.74 472.132,416.406 473.5,417.5C 473.023,418.478 472.357,419.311 471.5,420C 469.277,420.566 467.277,421.4 465.5,422.5C 464.365,424.088 463.031,424.421 461.5,423.5C 462.5,421.5 463.5,419.5 464.5,417.5C 463.478,416.646 462.645,415.646 462,414.5C 461.275,416.158 460.108,416.658 458.5,416C 458.833,415.667 459.167,415.333 459.5,415C 458.552,414.517 457.552,414.351 456.5,414.5C 454.272,413.623 452.272,412.29 450.5,410.5C 450.119,411.931 449.119,412.764 447.5,413C 451.422,415.323 451.088,415.823 446.5,414.5C 446.436,415.365 446.103,416.365 445.5,417.5C 445.833,417.833 446.167,418.167 446.5,418.5C 448.323,417.253 450.323,416.586 452.5,416.5C 453.773,417.077 453.773,417.743 452.5,418.5C 449.497,419.085 446.497,419.752 443.5,420.5C 443.137,421.183 442.804,421.85 442.5,422.5C 434.457,413.844 427.124,405.177 420.5,396.5C 422.322,394.84 424.489,393.84 427,393.5C 429.36,394.78 431.86,395.447 434.5,395.5 Z"/></g>
<g><path style="opacity:1" fill="#746b62" d="M 450.5,410.5 C 447.023,408.742 443.357,408.242 439.5,409C 440.5,409.833 441.5,410.667 442.5,411.5C 442.167,411.833 441.833,412.167 441.5,412.5C 440.019,411.52 438.685,410.353 437.5,409C 440.633,407.43 443.967,407.097 447.5,408C 448.942,408.377 449.942,409.21 450.5,410.5 Z"/></g>
<g><path style="opacity:1" fill="#e1d8cf" d="M 669.5,406.5 C 672.93,405.755 674.597,407.089 674.5,410.5C 673.731,421.998 669.397,431.832 661.5,440C 656.518,443.938 650.851,445.772 644.5,445.5C 644.267,440.966 645.1,436.632 647,432.5C 650.403,427.274 653.57,421.94 656.5,416.5C 661.082,413.389 665.416,410.055 669.5,406.5 Z"/></g>
<g><path style="opacity:1" fill="#675f58" d="M 459.5,399.5 C 463.572,403.565 467.238,407.898 470.5,412.5C 466.493,411.344 462.493,411.177 458.5,412C 460.481,411.395 460.815,410.395 459.5,409C 451.664,405.917 444.33,402.084 437.5,397.5C 438.833,397.167 440.167,396.833 441.5,396.5C 442.186,397.292 442.519,396.792 442.5,395C 441.844,393.091 441.344,391.258 441,389.5C 441.667,390.167 442.333,390.833 443,391.5C 443.288,394.53 443.455,397.364 443.5,400C 450.49,404.172 457.823,407.172 465.5,409C 462.854,406.198 460.854,403.032 459.5,399.5 Z"/></g>
<g><path style="opacity:1" fill="#888079" d="M 510.5,404.5 C 512.914,405.911 514.581,407.911 515.5,410.5C 514.069,411.082 512.736,411.915 511.5,413C 507.214,413.196 503.547,411.696 500.5,408.5C 501.577,407.295 502.91,406.628 504.5,406.5C 506.5,405.833 508.5,405.167 510.5,404.5 Z"/></g>
<g><path style="opacity:1" fill="#dad2cb" d="M 504.5,406.5 C 507.073,406.148 509.406,406.648 511.5,408C 510.5,408.333 509.5,408.667 508.5,409C 509.672,409.419 510.672,410.085 511.5,411C 509.029,411.706 506.695,411.373 504.5,410C 503.316,408.855 503.316,407.688 504.5,406.5 Z"/></g>
<g><path style="opacity:1" fill="#665f58" d="M 450.5,410.5 C 452.272,412.29 454.272,413.623 456.5,414.5C 454.847,414.66 453.514,415.326 452.5,416.5C 450.323,416.586 448.323,417.253 446.5,418.5C 446.167,418.167 445.833,417.833 445.5,417.5C 446.103,416.365 446.436,415.365 446.5,414.5C 451.088,415.823 451.422,415.323 447.5,413C 449.119,412.764 450.119,411.931 450.5,410.5 Z"/></g>
<g><path style="opacity:1" fill="#776f67" d="M 494.5,419.5 C 488.744,418.645 483.077,417.311 477.5,415.5C 475.502,416.967 473.836,418.8 472.5,421C 470.323,422.202 467.989,422.702 465.5,422.5C 467.277,421.4 469.277,420.566 471.5,420C 472.357,419.311 473.023,418.478 473.5,417.5C 472.132,416.406 470.965,416.74 470,418.5C 469.383,417.551 469.549,416.718 470.5,416C 469.833,415.667 469.167,415.333 468.5,415C 469.756,414.583 470.423,413.75 470.5,412.5C 473.067,412.855 475.567,413.521 478,414.5C 478.5,414.167 479,413.833 479.5,413.5C 477.906,410.009 477.239,406.342 477.5,402.5C 479.103,402.312 480.437,402.812 481.5,404C 480.551,404.617 479.718,404.451 479,403.5C 478.609,407.934 479.776,411.934 482.5,415.5C 483.113,414.02 483.446,412.687 483.5,411.5C 484.316,413.287 485.316,414.954 486.5,416.5C 487.449,412.857 486.449,409.69 483.5,407C 484.449,406.383 485.282,406.549 486,407.5C 488.006,410.536 488.84,413.869 488.5,417.5C 490.786,417.595 492.786,418.262 494.5,419.5 Z"/></g>
<g><path style="opacity:1" fill="#d9d1c9" d="M 818.5,407.5 C 823.639,406.456 825.139,408.123 823,412.5C 815.222,420.107 808.388,428.44 802.5,437.5C 803.583,425.34 808.916,415.34 818.5,407.5 Z"/></g>
<g><path style="opacity:1" fill="#e4dad0" d="M 456.5,414.5 C 457.552,414.351 458.552,414.517 459.5,415C 459.167,415.333 458.833,415.667 458.5,416C 460.108,416.658 461.275,416.158 462,414.5C 462.645,415.646 463.478,416.646 464.5,417.5C 463.5,419.5 462.5,421.5 461.5,423.5C 463.031,424.421 464.365,424.088 465.5,422.5C 467.989,422.702 470.323,422.202 472.5,421C 473.836,418.8 475.502,416.967 477.5,415.5C 483.077,417.311 488.744,418.645 494.5,419.5C 493.4,420.558 492.066,421.392 490.5,422C 489.177,422.816 488.511,423.983 488.5,425.5C 486.896,426.287 486.229,427.62 486.5,429.5C 490.308,429.837 493.974,429.337 497.5,428C 499.451,426.266 500.451,424.099 500.5,421.5C 506.506,422.223 512.506,423.056 518.5,424C 513.93,425.774 509.93,428.274 506.5,431.5C 510.78,429.36 515.114,427.193 519.5,425C 521.134,424.506 522.801,424.34 524.5,424.5C 525.332,429.481 525.498,434.481 525,439.5C 515.606,457.613 501.106,463.779 481.5,458C 466.457,448.459 453.457,436.626 442.5,422.5C 442.804,421.85 443.137,421.183 443.5,420.5C 446.497,419.752 449.497,419.085 452.5,418.5C 453.773,417.743 453.773,417.077 452.5,416.5C 453.514,415.326 454.847,414.66 456.5,414.5 Z"/></g>
<g><path style="opacity:1" fill="#6d655d" d="M 494.5,419.5 C 502.654,420.536 510.82,421.536 519,422.5C 520.385,422.486 521.551,422.152 522.5,421.5C 523.401,422.29 524.068,423.29 524.5,424.5C 522.801,424.34 521.134,424.506 519.5,425C 515.114,427.193 510.78,429.36 506.5,431.5C 509.93,428.274 513.93,425.774 518.5,424C 512.506,423.056 506.506,422.223 500.5,421.5C 500.451,424.099 499.451,426.266 497.5,428C 493.974,429.337 490.308,429.837 486.5,429.5C 486.229,427.62 486.896,426.287 488.5,425.5C 488.511,423.983 489.177,422.816 490.5,422C 492.066,421.392 493.4,420.558 494.5,419.5 Z"/></g>
<g><path style="opacity:1" fill="#ded6cd" d="M 488.5,425.5 C 490.262,423.583 492.429,422.25 495,421.5C 495.467,423.163 496.633,423.996 498.5,424C 496.84,427.072 494.173,428.572 490.5,428.5C 489.5,428.333 488.5,428.167 487.5,428C 488.252,427.329 488.586,426.496 488.5,425.5 Z"/></g>
<g><path style="opacity:1" fill="#818081" d="M 638.5,426.5 C 640.337,426.639 640.67,427.306 639.5,428.5C 638.702,428.043 638.369,427.376 638.5,426.5 Z"/></g>
<g><path style="opacity:1" fill="#e1d7ce" d="M 604.5,425.5 C 605.496,425.414 606.329,425.748 607,426.5C 607.79,429.634 607.457,432.634 606,435.5C 603,440.5 600,445.5 597,450.5C 590.589,455.505 587.089,453.839 586.5,445.5C 586.941,440.401 587.774,435.401 589,430.5C 594.458,429.513 599.624,427.847 604.5,425.5 Z"/></g>
<g><path style="opacity:1" fill="#8a817a" d="M 506.5,431.5 C 507.11,432.391 507.443,433.391 507.5,434.5C 509.441,436.011 509.941,438.011 509,440.5C 506.631,443.366 504.465,446.366 502.5,449.5C 500.468,445.619 500.135,441.619 501.5,437.5C 498.772,436.06 496.605,436.726 495,439.5C 494.667,441.5 494.333,443.5 494,445.5C 493.583,446.756 492.75,447.423 491.5,447.5C 491.047,448.458 490.381,449.292 489.5,450C 486.176,450.943 482.843,451.776 479.5,452.5C 480.721,448.756 481.887,445.09 483,441.5C 478.083,442.926 473.25,442.593 468.5,440.5C 469.931,438.062 471.931,436.396 474.5,435.5C 475.312,434.007 476.645,433.34 478.5,433.5C 481.865,434.565 485.199,435.565 488.5,436.5C 494.899,436.03 500.899,434.364 506.5,431.5 Z"/></g>
<g><path style="opacity:1" fill="#dad1ca" d="M 474.5,435.5 C 477.997,434.295 480.997,434.795 483.5,437C 476.927,437.528 476.927,438.362 483.5,439.5C 482.312,440.84 480.812,441.507 479,441.5C 476.176,440.946 473.343,440.446 470.5,440C 472.041,438.629 473.375,437.129 474.5,435.5 Z"/></g>
<g><path style="opacity:1" fill="#d8d0c8" d="M 507.5,434.5 C 508.476,439.225 506.976,442.892 503,445.5C 501.833,442.231 502.167,438.898 504,435.5C 504.333,436.5 504.667,437.5 505,438.5C 505.122,436.563 505.955,435.23 507.5,434.5 Z"/></g>
<g><path style="opacity:1" fill="#dbd2ca" d="M 491.5,447.5 C 480.611,452.697 478.944,450.697 486.5,441.5C 491.808,439.812 492.474,440.645 488.5,444C 490.387,444.163 491.887,443.329 493,441.5C 493.409,443.695 492.909,445.695 491.5,447.5 Z"/></g>
<g><path style="opacity:1" fill="#020101" d="M 528.5,493.5 C 537.5,493.5 546.5,493.5 555.5,493.5C 555.5,496.167 555.5,498.833 555.5,501.5C 546.5,501.5 537.5,501.5 528.5,501.5C 528.5,498.833 528.5,496.167 528.5,493.5 Z"/></g>
<g><path style="opacity:1" fill="#090808" d="M 592.5,502.5 C 583.5,502.5 574.5,502.5 565.5,502.5C 565.5,499.5 565.5,496.5 565.5,493.5C 574.5,493.5 583.5,493.5 592.5,493.5C 592.5,496.5 592.5,499.5 592.5,502.5 Z"/></g>
<g><path style="opacity:1" fill="#000000" d="M 602.5,493.5 C 611.5,493.5 620.5,493.5 629.5,493.5C 629.5,496.167 629.5,498.833 629.5,501.5C 620.5,501.5 611.5,501.5 602.5,501.5C 602.5,498.833 602.5,496.167 602.5,493.5 Z"/></g>
<g><path style="opacity:1" fill="#090808" d="M 702.5,502.5 C 693.5,502.5 684.5,502.5 675.5,502.5C 675.5,499.5 675.5,496.5 675.5,493.5C 684.5,493.5 693.5,493.5 702.5,493.5C 702.5,496.5 702.5,499.5 702.5,502.5 Z"/></g>
<g><path style="opacity:1" fill="#000000" d="M 712.5,493.5 C 721.5,493.5 730.5,493.5 739.5,493.5C 739.5,496.167 739.5,498.833 739.5,501.5C 730.5,501.5 721.5,501.5 712.5,501.5C 712.5,498.833 712.5,496.167 712.5,493.5 Z"/></g>
<g><path style="opacity:1" fill="#0a0808" d="M 812.5,502.5 C 803.5,502.5 794.5,502.5 785.5,502.5C 785.5,499.5 785.5,496.5 785.5,493.5C 794.5,493.5 803.5,493.5 812.5,493.5C 812.5,496.5 812.5,499.5 812.5,502.5 Z"/></g>
<g><path style="opacity:1" fill="#010000" d="M 822.5,493.5 C 831.5,493.5 840.5,493.5 849.5,493.5C 849.5,496.167 849.5,498.833 849.5,501.5C 840.5,501.5 831.5,501.5 822.5,501.5C 822.5,498.833 822.5,496.167 822.5,493.5 Z"/></g>
<g><path style="opacity:1" fill="#555250" d="M 528.5,493.5 C 537.652,492.506 546.985,492.173 556.5,492.5C 556.5,495.833 556.5,499.167 556.5,502.5C 547.167,502.5 537.833,502.5 528.5,502.5C 528.5,502.167 528.5,501.833 528.5,501.5C 537.5,501.5 546.5,501.5 555.5,501.5C 555.5,498.833 555.5,496.167 555.5,493.5C 546.5,493.5 537.5,493.5 528.5,493.5 Z"/></g>
<g><path style="opacity:1" fill="#454443" d="M 602.5,493.5 C 602.5,496.167 602.5,498.833 602.5,501.5C 611.5,501.5 620.5,501.5 629.5,501.5C 629.5,501.833 629.5,502.167 629.5,502.5C 620.167,502.5 610.833,502.5 601.5,502.5C 601.19,499.287 601.523,496.287 602.5,493.5 Z"/></g>
<g><path style="opacity:1" fill="#52504d" d="M 643.5,492.5 C 651.167,492.5 658.833,492.5 666.5,492.5C 666.5,495.833 666.5,499.167 666.5,502.5C 657.167,502.5 647.833,502.5 638.5,502.5C 638.5,502.167 638.5,501.833 638.5,501.5C 647.5,501.5 656.5,501.5 665.5,501.5C 665.5,498.833 665.5,496.167 665.5,493.5C 657.41,493.833 650.077,493.499 643.5,492.5 Z"/></g>
<g><path style="opacity:1" fill="#454340" d="M 712.5,493.5 C 712.5,496.167 712.5,498.833 712.5,501.5C 721.5,501.5 730.5,501.5 739.5,501.5C 739.5,501.833 739.5,502.167 739.5,502.5C 730.167,502.5 720.833,502.5 711.5,502.5C 711.19,499.287 711.523,496.287 712.5,493.5 Z"/></g>
<g><path style="opacity:1" fill="#4f4b47" d="M 776.5,502.5 C 767.167,502.5 757.833,502.5 748.5,502.5C 748.5,499.167 748.5,495.833 748.5,492.5C 757.833,492.5 767.167,492.5 776.5,492.5C 776.5,495.833 776.5,499.167 776.5,502.5 Z"/></g>
<g><path style="opacity:1" fill="#000000" d="M 749.5,493.5 C 758.167,493.5 766.833,493.5 775.5,493.5C 775.5,496.167 775.5,498.833 775.5,501.5C 766.833,501.5 758.167,501.5 749.5,501.5C 749.5,498.833 749.5,496.167 749.5,493.5 Z"/></g>
<g><path style="opacity:1" fill="#454340" d="M 822.5,493.5 C 822.5,496.167 822.5,498.833 822.5,501.5C 831.5,501.5 840.5,501.5 849.5,501.5C 849.5,502.167 849.167,502.5 848.5,502.5C 839.5,502.5 830.5,502.5 821.5,502.5C 821.19,499.287 821.523,496.287 822.5,493.5 Z"/></g>
<g><path style="opacity:1" fill="#4e4b45" d="M 858.5,492.5 C 867.833,492.5 877.167,492.5 886.5,492.5C 886.5,495.833 886.5,499.167 886.5,502.5C 877.167,502.5 867.833,502.5 858.5,502.5C 858.5,499.167 858.5,495.833 858.5,492.5 Z"/></g>
<g><path style="opacity:1" fill="#000000" d="M 859.5,493.5 C 868.167,493.5 876.833,493.5 885.5,493.5C 885.5,496.167 885.5,498.833 885.5,501.5C 876.833,501.5 868.167,501.5 859.5,501.5C 859.5,498.833 859.5,496.167 859.5,493.5 Z"/></g>
<g><path style="opacity:1" fill="#414141" d="M 220.5,499.5 C 220.5,503.5 220.5,507.5 220.5,511.5C 214.974,511.821 209.64,511.488 204.5,510.5C 209.5,510.5 214.5,510.5 219.5,510.5C 219.185,506.629 219.518,502.962 220.5,499.5 Z"/></g>
</svg>
